<svg xmlns="http://www.w3.org/2000/svg" width="200" height="40" viewBox="0 0 200 40"><path d="M39.554 8.022c-1.415.628-2.936 1.052-4.533 1.243 1.63-.977 2.882-2.523 3.47-4.366-1.523.903-3.212 1.56-5.01 1.914-1.44-1.534-3.49-2.492-5.76-2.492-4.36 0-7.892 3.533-7.892 7.89 0 .62.07 1.222.204 1.8-6.558-.33-12.373-3.47-16.265-8.246-.68 1.166-1.07 2.522-1.07 3.968 0 2.738 1.394 5.153 3.512 6.568-1.295-.04-2.512-.396-3.576-.987v.1c0 3.823 2.72 7.013 6.33 7.737-.662.18-1.36.277-2.08.277-.508 0-1.002-.05-1.484-.142 1.004 3.135 3.92 5.416 7.372 5.48-2.7 2.117-6.103 3.378-9.8 3.378-.638 0-1.266-.037-1.883-.11 3.49 2.24 7.64 3.546 12.096 3.546 14.515 0 22.453-12.025 22.453-22.454 0-.342-.01-.682-.024-1.02 1.542-1.113 2.88-2.503 3.938-4.086" fill="#55acee"/><path d="M60.225 2.277c-10.388 0-18.812 8.422-18.812 18.812 0 8.31 5.39 15.362 12.865 17.85.94.173 1.285-.41 1.285-.906 0-.45-.018-1.93-.026-3.502-5.233 1.138-6.337-2.22-6.337-2.22-.856-2.174-2.09-2.752-2.09-2.752-1.706-1.168.13-1.144.13-1.144 1.89.133 2.883 1.94 2.883 1.94 1.678 2.874 4.4 2.043 5.474 1.562.17-1.215.657-2.045 1.195-2.515-4.18-.476-8.57-2.09-8.57-9.297 0-2.054.734-3.732 1.937-5.05-.196-.473-.84-2.386.182-4.978 0 0 1.58-.505 5.174 1.93 1.5-.418 3.11-.627 4.71-.634 1.597.01 3.208.216 4.71.633 3.592-2.434 5.17-1.93 5.17-1.93 1.023 2.593.38 4.506.184 4.98 1.206 1.317 1.936 2.995 1.936 5.05 0 7.224-4.4 8.815-8.59 9.28.675.585 1.276 1.73 1.276 3.485 0 2.517-.022 4.542-.022 5.162 0 .5.34 1.087 1.292.902 7.47-2.49 12.854-9.54 12.854-17.847 0-10.39-8.422-18.813-18.81-18.813zM48.46 29.075c-.043.093-.19.12-.324.057-.136-.06-.213-.19-.17-.283.042-.097.19-.124.325-.06.138.062.216.19.17.285zm.924.825c-.09.083-.265.045-.384-.087-.123-.13-.146-.306-.055-.39.092-.084.262-.045.386.086.124.132.148.306.054.39zm.635 1.057c-.117.08-.305 0-.422-.163-.115-.167-.115-.368.003-.448.118-.08.303-.01.42.158.116.17.116.37 0 .453zm1.072 1.223c-.103.114-.322.083-.483-.072-.166-.152-.21-.367-.108-.48.104-.115.325-.083.487.07.162.153.212.37.102.482zm1.388.413c-.046.147-.257.214-.47.152-.213-.064-.352-.237-.31-.386.045-.15.257-.22.472-.152.212.064.352.235.308.385zm1.58.175c.004.155-.177.284-.4.287-.225.01-.407-.12-.41-.273 0-.157.177-.284.402-.288.224 0 .407.12.407.274zm1.55-.06c.027.153-.13.308-.35.35-.22.04-.42-.054-.45-.204-.026-.155.132-.31.35-.35.223-.04.422.05.45.205z" fill="#161614"/><path d="M84.31 24.756q0 5.39 3.703 9.422 3.704 4.034 9.533 4.034 5.793 0 9.497-4.034 3.703-3.96 3.703-9.422 0-2.86-.99-5.354-1.467.917-3.117 1.247.806 1.87.806 4.18 0 2.785-1.32 5.205-1.357 2.42-3.63 3.703-2.273 1.32-4.95 1.32-2.75 0-4.986-1.32-2.31-1.356-3.593-3.703-1.357-2.383-1.357-5.206 0-4.29 2.933-7.407 2.933-3.044 7.003-3.044 1.87 0 3.593.696.146-1.43.99-3.153-2.09-.77-4.584-.77-5.866 0-9.753 4.326-3.483 3.922-3.483 9.276zm10.266 9.276l2.054.146q2.713-1.723 4.564-3.996 1.852-2.273 2.66-4.547.805-2.273 1.135-4.62.22-1.503.22-2.933 0-.77-.074-1.466-.183-2.017-.458-3.612-.275-1.595-.57-2.51l-.33-.918q-.805-2.493-1.594-4.363-.788-1.87-1.154-2.457l-.404-.623q1.43.734 2.31 1.76.843 1.063 1.027 1.943.146.734.146 1.43v.257q-.037.807-.22 1.283l-.184.477q.147 2.126.183 4.106 0 1.906-.184 3.74-.33 3.666-1.118 6.122-.79 2.457-1.815 4.455-1.027 1.998-2.108 3.135-1.082 1.136-2 1.888-.915.752-1.502 1.045zm10.083-23.356q.146-1.466.843-2.346l.66-.917q.44-.513 1.43-.972.99-.457 1.76-.677l.77-.22q1.32-.293 2.438-1.283 1.12-.99 1.596-1.87l.476-.843q1.503 2.09 1.797 4.73.145 1.173.11 2.09 0 1.246-.22 2.162l-.405 1.65q-.44 1.21-1.228 2.2-.788.99-1.338 1.356l-.55.403q-1.248.733-2.458.733l-3.996-1.944q2.126-1.174 3.703-2.384 1.576-1.21 2.327-2.108.752-.898 1.21-1.632.46-.733.532-1.136l.072-.367q-.66 1.467-1.778 2.677-1.118 1.21-2.273 1.906-1.154.697-2.218 1.192-1.063.495-1.723.678l-.66.183q-.917-1.614-.917-2.897 0-.183.036-.367z" fill="#ff7f2a"/><path d="M122.953 0C121.323 0 120 1.29 120 2.883v34.23c0 1.594 1.324 2.887 2.953 2.887h34.086c1.63 0 2.96-1.293 2.96-2.887V2.883C160 1.29 158.67 0 157.04 0h-34.087zm5.945 5.508c1.898 0 3.438 1.542 3.438 3.44s-1.54 3.44-3.438 3.44c-1.9 0-3.44-1.542-3.44-3.44s1.54-3.44 3.44-3.44zm18.07 9.014c6.006 0 7.116 3.954 7.116 9.093v10.47h-5.928v-9.282c0-2.215-.042-5.063-3.084-5.063-3.087 0-3.558 2.413-3.558 4.903v9.443h-5.93v-19.09h5.69v2.61h.08c.79-1.5 2.727-3.084 5.613-3.084zm-21.038.474h5.933v19.09h-5.933v-19.09z" fill="#006087"/><path d="M161.95 31.084q-.732-2.79 0-5.577.734-2.79 2.82-4.875l5.557-5.535q2.086-2.087 4.864-2.82 2.78-.733 5.567 0 2.79.733 4.875 2.82.868.867.868 2.096 0 1.23-.868 2.097-.867.867-2.096.867-1.23 0-2.097-.867-1.447-1.446-3.47-1.446-2.025 0-3.43 1.446l-5.556 5.556q-1.404 1.446-1.404 3.46 0 2.013 1.404 3.46 1.446 1.404 3.45 1.404 2.003 0 3.45-1.405l1.135-1.156q3.283 1.59 6.94 1.486l-3.863 3.862q-2.087 2.086-4.875 2.82-2.788.733-5.577 0-2.788-.734-4.874-2.82t-2.82-4.874zm12.3-7.59q0-1.23.89-2.098.867-.867 2.096-.867 1.23 0 2.096.866 1.405 1.446 3.43 1.446 2.023 0 3.47-1.446l5.555-5.556q1.446-1.446 1.446-3.46 0-2.013-1.446-3.418-1.404-1.446-3.43-1.446-2.023 0-3.47 1.446l-1.155 1.116q-3.264-1.55-6.92-1.488l3.863-3.862q2.086-2.066 4.874-2.8 2.788-.732 5.576 0 2.79.734 4.854 2.8 2.086 2.086 2.82 4.874.733 2.79 0 5.577-.734 2.788-2.82 4.874l-5.556 5.535q-2.086 2.085-4.875 2.83-2.79.743-5.567 0-2.778-.745-4.844-2.83-.89-.868-.89-2.097z" fill="#999"/></svg>
