<svg xmlns="http://www.w3.org/2000/svg" viewBox="0 0 630 630"><path fill="#72c42d" d="M0 0h630v630H0z"/><path d="M232.106 515.408a4.97 4.97 0 0 0-2.489-4.324l-41.203-23.712a4.849 4.849 0 0 0-2.268-.656h-.426a4.92 4.92 0 0 0-2.275.656l-41.204 23.712a4.992 4.992 0 0 0-2.49 4.324l.09 63.85c0 .889.46 1.715 1.242 2.152.765.455 1.71.455 2.472 0l24.488-14.025c1.547-.918 2.49-2.54 2.49-4.315v-29.833c0-1.777.942-3.423 2.484-4.307l10.428-6.007a4.959 4.959 0 0 1 2.495-.667c.848 0 1.72.22 2.474.667l10.424 6.007a4.96 4.96 0 0 1 2.487 4.307v29.833c0 1.774.957 3.406 2.495 4.315l24.48 14.025a2.434 2.434 0 0 0 2.488 0 2.49 2.49 0 0 0 1.237-2.152l.081-63.85M448.295 548.655c0 .444-.238.855-.621 1.076l-14.153 8.158c-.384.221-.86.221-1.243 0l-14.153-8.158a1.237 1.237 0 0 1-.621-1.076v-16.342c0-.444.235-.855.621-1.078l14.15-8.173a1.243 1.243 0 0 1 1.246 0l14.153 8.173c.383.223.621.634.621 1.078v16.342zm3.823-121.021a2.49 2.49 0 0 0-3.7 2.174v63.233a1.742 1.742 0 0 1-2.611 1.509l-10.32-5.946a4.978 4.978 0 0 0-4.973.001l-41.22 23.789a4.975 4.975 0 0 0-2.49 4.309v47.586c0 1.78.95 3.423 2.49 4.311l41.216 23.807a4.988 4.988 0 0 0 4.98 0l41.224-23.807a4.975 4.975 0 0 0 2.488-4.311v-118.62c0-1.804-.978-3.47-2.554-4.348l-24.53-13.687M599.589 531.886a4.975 4.975 0 0 0 2.475-4.304V516.05a4.975 4.975 0 0 0-2.479-4.305l-40.952-23.778a4.977 4.977 0 0 0-4.99-.005l-41.204 23.788a4.976 4.976 0 0 0-2.488 4.31v47.572c0 1.792.961 3.44 2.514 4.326l40.95 23.333c1.51.862 3.36.87 4.88.027l24.768-13.767a2.488 2.488 0 1 0 .03-4.332l-41.465-23.802a2.485 2.485 0 0 1-1.253-2.158V532.35c0-.89.476-1.713 1.246-2.156l12.907-7.44a2.478 2.478 0 0 1 2.482 0l12.914 7.44a2.488 2.488 0 0 1 1.246 2.156v11.73a2.489 2.489 0 0 0 3.737 2.154l24.682-14.347" fill="#2e2d2d" fill-rule="evenodd"/><path d="M307.056 487.71a4.982 4.982 0 0 1 4.978 0l41.213 23.783a4.977 4.977 0 0 1 2.49 4.312v47.605c0 1.778-.948 3.42-2.489 4.312l-41.213 23.802a4.982 4.982 0 0 1-4.98 0l-41.204-23.802a4.985 4.985 0 0 1-2.488-4.312v-47.607c0-1.777.95-3.42 2.49-4.31l41.203-23.783M555.53 529.658a.95.95 0 0 1 .955 0l7.91 4.563c.295.17.477.485.477.827v9.133a.955.955 0 0 1-.476.827l-7.911 4.563a.95.95 0 0 1-.955 0l-7.901-4.563a.951.951 0 0 1-.48-.827v-9.133c0-.342.182-.657.48-.827l7.9-4.563" fill="#fff" fill-rule="evenodd"/></svg>