<?xml version="1.0" encoding="UTF-8" standalone="no"?>
<svg
   xmlns:dc="http://purl.org/dc/elements/1.1/"
   xmlns:cc="http://creativecommons.org/ns#"
   xmlns:rdf="http://www.w3.org/1999/02/22-rdf-syntax-ns#"
   xmlns:svg="http://www.w3.org/2000/svg"
   xmlns="http://www.w3.org/2000/svg"
   xmlns:sodipodi="http://sodipodi.sourceforge.net/DTD/sodipodi-0.dtd"
   xmlns:inkscape="http://www.inkscape.org/namespaces/inkscape"
   width="256px"
   height="272px"
   viewBox="0 0 256 272"
   version="1.1"
   preserveAspectRatio="xMidYMid"
   id="svg4223"
   inkscape:version="0.91+devel r14338"
   sodipodi:docname="logo-angular-transparent.svg">
  <metadata
     id="metadata4229">
    <rdf:RDF>
      <cc:Work
         rdf:about="">
        <dc:format>image/svg+xml</dc:format>
        <dc:type
           rdf:resource="http://purl.org/dc/dcmitype/StillImage" />
        <dc:title></dc:title>
      </cc:Work>
    </rdf:RDF>
  </metadata>
  <defs
     id="defs4227" />
  <sodipodi:namedview
     pagecolor="#ff9234"
     bordercolor="#666666"
     borderopacity="1"
     objecttolerance="10"
     gridtolerance="10"
     guidetolerance="10"
     inkscape:pageopacity="0"
     inkscape:pageshadow="2"
     inkscape:window-width="956"
     inkscape:window-height="1196"
     id="namedview4225"
     showgrid="false"
     inkscape:zoom="1.2982039"
     inkscape:cx="88.093797"
     inkscape:cy="167.41519"
     inkscape:window-x="1440"
     inkscape:window-y="0"
     inkscape:window-maximized="0"
     inkscape:current-layer="g4221" />
  <g
     id="g4221">
    <path
       style="fill:#ffffff;fill-opacity:0.15686275"
       d="M 125.9082 0.69726562 L 0.099609375 45.521484 L 19.324219 211.97266 L 125.9082 271.14062 L 234.18555 211.17578 L 255.10352 44.724609 L 125.9082 0.69726562 z M 126.10742 32.273438 L 208.28711 207.19141 L 180.29492 206.69336 L 163.0625 166.84766 L 126.30664 166.84766 L 126.20703 166.84766 L 92.738281 166.84766 L 77 206.19531 L 47.712891 206.69336 L 126.10742 32.273438 z M 126.30664 88.15625 L 102.99805 143.53906 L 126.10742 143.53906 L 127.40234 143.53906 L 152.80273 143.53906 L 126.30664 88.15625 z "
       id="path4215" />
    <path
       style="fill:#ffffff;fill-opacity:0.19607843"
       d="M 125.9082 0.69726562 L 125.9082 32.716797 L 126.10742 32.273438 L 208.28711 207.19141 L 180.29492 206.69336 L 163.0625 166.84766 L 126.30664 166.84766 L 126.20703 166.84766 L 125.9082 166.84766 L 125.9082 271.14062 L 234.18555 211.27539 L 255.10352 44.724609 L 125.9082 0.69726562 z M 126.30664 88.15625 L 125.9082 89.103516 L 125.9082 143.53906 L 126.10742 143.53906 L 127.40234 143.53906 L 152.80273 143.53906 L 126.30664 88.15625 z "
       id="path4217" />
  </g>
</svg>
